# xmcd CD database file
# Copyright (C) 1996 Ti Kan
#
# Track frame offsets:
# 	182
# 	12092
# 	24215
# 	37827
# 	50757
# 	64220
# 	77565
# 	89892
# 	102830
# 	115497
# 	128405
# 	141435
# 	153300
# 	165692
# 	178780
# 	191622
# 	202527
# 	217867
#
# Disc length: 3029 seconds
#
# Revision: 1
# Processed by: cddbd v1.4b41PL1 Copyright (c) Steve Scherf et al.
# Submitted via: DiscPlay 3.4.1
#
DISCID=e90bd312
DTITLE=Merle Travis - The Best of Merle Travis
DYEAR=1900
DGENRE=
TTITLE0=Cincinnati Lou
TTITLE1=No Vacancy
TTITLE2=Divorce Me COD
TTITLE3=Sweet Temptation
TTITLE4=So Round, So Firm, So Fully Packed
TTITLE5=Three Times Seven
TTITLE6=Steel Guitar Rag
TTITLE7=Sixteen Tons
TTITLE8=Dark As A Dungeon
TTITLE9=I Am A Pilgrim
TTITLE10=Lawdy, What A Gal
TTITLE11=Fat Gal
TTITLE12=I Like My Chicken Fryin' Size
TTITLE13=When My Baby Double Talks To Me
TTITLE14=Trouble, Trouble
TTITLE15=Kinfolks In Carolina
TTITLE16=Re-Enlistment Blues
TTITLE17=Cannon Ball Rag
EXTD=
EXTT0=
EXTT1=
EXTT2=
EXTT3=
EXTT4=
EXTT5=
EXTT6=
EXTT7=
EXTT8=
EXTT9=
EXTT10=
EXTT11=
EXTT12=
EXTT13=
EXTT14=
EXTT15=
EXTT16=
EXTT17=
PLAYORDER=
